<svg width="1024" height="1024" viewBox="0 0 1024 1024" fill="none" xmlns="http://www.w3.org/2000/svg">
<path d="M0 592.5C0 486.185 86.1852 400 192.5 400V400C298.815 400 385 486.185 385 592.5V797.5C385 903.815 298.815 990 192.5 990V990C86.1852 990 0 903.815 0 797.5V592.5Z" fill="#E9ECEF"/>
<path d="M619 592.5C619 486.185 705.185 400 811.5 400V400C917.815 400 1004 486.185 1004 592.5V797.5C1004 903.815 917.815 990 811.5 990V990C705.185 990 619 903.815 619 797.5V592.5Z" fill="#E9ECEF"/>
<path d="M304 592.5C304 486.185 390.185 400 496.5 400V400C602.815 400 689 486.185 689 592.5V797.5C689 903.815 602.815 990 496.5 990V990C390.185 990 304 903.815 304 797.5V592.5Z" fill="#E9ECEF"/>
<ellipse cx="839" cy="180.5" rx="154" ry="146.5" fill="#E9ECEF"/>
</svg>
